<svg width="38" height="30" viewBox="0 0 38 30" fill="none" xmlns="http://www.w3.org/2000/svg">
<path d="M4.60156 5.66406V4.66406C4.60156 4.11178 5.08707 3.66406 5.68168 3.66406H7.12144C7.71798 3.66406 8.20156 4.1129 8.20156 4.66406V5.66406" stroke="#A4A2A2" stroke-width="2" stroke-linecap="round" stroke-linejoin="round"/>
<path fill-rule="evenodd" clip-rule="evenodd" d="M10.3294 6H2.07741C1.48168 6 1 6.44909 1 7.00307V27.9969C1 28.5509 1.48237 29 2.07741 29H35.9226C36.5183 29 37 28.5509 37 27.9969V7.00307C37 6.44912 36.5176 6 35.9226 6H27.6868L25.0625 1.86043C24.7613 1.38522 24.0339 1 23.4379 1H14.6027C14.0101 1 13.2774 1.38523 12.9739 1.86043L10.3294 6Z" stroke="#A4A2A2" stroke-width="2" stroke-linecap="round" stroke-linejoin="round"/>
<path d="M18.9981 25.0182C23.3722 25.0182 26.9181 21.735 26.9181 17.6849C26.9181 13.6348 23.3722 10.3516 18.9981 10.3516C14.624 10.3516 11.0781 13.6348 11.0781 17.6849C11.0781 21.735 14.624 25.0182 18.9981 25.0182Z" stroke="#A4A2A2" stroke-width="2" stroke-linecap="round" stroke-linejoin="round"/>
<path d="M17.2081 13.3203C16.1187 13.3203 14.3281 14.9 14.3281 15.987" stroke="#A4A2A2" stroke-width="2" stroke-linecap="round" stroke-linejoin="round"/>
<path d="M15.3906 4.99219H22.5906" stroke="#A4A2A2" stroke-width="2" stroke-linecap="round" stroke-linejoin="round"/>
</svg>
