<svg width="38" height="34" viewBox="0 0 38 34" fill="none" xmlns="http://www.w3.org/2000/svg">
<path d="M31.9099 19.7767C32.829 19.181 34.2075 18.226 36.0456 16.8381C36.5746 16.3872 37.0034 16.5375 37.0034 17.1751V31.7596C37.0034 32.4014 36.5779 32.5519 36.0456 32.1002C34.1434 30.5442 32.7167 29.4833 31.7656 28.8267" stroke="#A4A2A2" stroke-width="2" stroke-linecap="round" stroke-linejoin="round"/>
<path d="M29.8735 16.0391H2.8749C1.83942 16.0391 1 16.8811 1 17.9199V31.0858C1 32.1246 1.83942 32.9667 2.8749 32.9667H29.8735C30.909 32.9667 31.7484 32.1246 31.7484 31.0858V17.9199C31.7484 16.8811 30.909 16.0391 29.8735 16.0391Z" stroke="#A4A2A2" stroke-width="2" stroke-linecap="round" stroke-linejoin="round"/>
<path d="M23.5074 16.0468C27.6493 16.0468 31.007 12.6784 31.007 8.52338C31.007 4.36833 27.6493 1 23.5074 1C19.3655 1 16.0078 4.36833 16.0078 8.52338C16.0078 12.6784 19.3655 16.0468 23.5074 16.0468Z" stroke="#A4A2A2" stroke-width="2" stroke-linecap="round" stroke-linejoin="round"/>
<path d="M8.49961 16.0468C12.6415 16.0468 15.9992 12.6784 15.9992 8.52338C15.9992 4.36833 12.6415 1 8.49961 1C4.35769 1 1 4.36833 1 8.52338C1 12.6784 4.35769 16.0468 8.49961 16.0468Z" stroke="#A4A2A2" stroke-width="2" stroke-linecap="round" stroke-linejoin="round"/>
</svg>
